<svg id="Layer_1" enable-background="new 0 0 256 256" height="512" viewBox="0 0 256 256" width="512" xmlns="http://www.w3.org/2000/svg"><g><g><g><path d="m226.217 128.324c-.974 11.564-13.025 13.389-13.025 13.389 10.347.487 12.925 14.059 12.925 14.059.221-9.677 13.321-14.202 13.321-14.202-9.813-.587-13.221-13.246-13.221-13.246z" fill="#d7e057"/></g></g><g><g><path d="m239.528 140.072c-8.604-.514-11.832-12.024-11.863-12.14-.19-.702-.852-1.161-1.584-1.102-.725.066-1.298.642-1.359 1.367-.859 10.215-11.313 11.963-11.754 12.032-.763.115-1.313.79-1.273 1.56s.657 1.384 1.428 1.421c9.027.425 11.498 12.719 11.521 12.843.138.711.76 1.217 1.473 1.217.042 0 .084-.002.126-.005.764-.064 1.357-.693 1.375-1.46.194-8.509 12.191-12.777 12.313-12.819.676-.235 1.092-.914.994-1.623-.1-.707-.683-1.248-1.397-1.291zm-13.566 10.346c-1.356-3.13-3.709-6.907-7.587-8.876 2.931-1.405 6.409-3.913 8.202-8.273 1.551 3.071 4.2 6.88 8.334 8.722-3.007 1.64-6.923 4.406-8.949 8.427z" fill="#3a312a"/></g></g><g><g><path d="m204.518 145.304c-.689 8.179-9.213 9.471-9.213 9.471 7.318.344 9.142 9.944 9.142 9.944.156-6.844 9.422-10.045 9.422-10.045-6.94-.416-9.351-9.37-9.351-9.37z" fill="#d7e057"/></g></g><g><g><path d="m213.96 153.176c-5.767-.345-7.972-8.185-7.993-8.264-.19-.703-.861-1.163-1.582-1.102-.726.065-1.3.642-1.361 1.368-.579 6.871-7.646 8.066-7.942 8.113-.763.115-1.313.79-1.273 1.561.04.77.657 1.384 1.428 1.421 6.035.284 7.724 8.644 7.739 8.726.136.712.759 1.22 1.473 1.22.041 0 .083-.002.125-.005.765-.063 1.358-.694 1.376-1.461.13-5.709 8.331-8.634 8.412-8.662.676-.234 1.093-.913.996-1.622-.099-.709-.684-1.25-1.398-1.293zm-9.585 6.795c-.924-1.886-2.34-3.947-4.447-5.28 1.856-1.042 3.697-2.63 4.871-4.917 1.057 1.873 2.654 3.955 4.941 5.224-1.85 1.102-3.989 2.741-5.365 4.973z" fill="#3a312a"/></g></g><g><g><path d="m204.518 118.646c-.689 8.179-9.213 9.471-9.213 9.471 7.318.344 9.142 9.944 9.142 9.944.156-6.845 9.422-10.045 9.422-10.045-6.94-.415-9.351-9.37-9.351-9.37z" fill="#d7e057"/></g></g><g><g><path d="m213.96 126.519c-5.767-.345-7.972-8.186-7.993-8.265-.19-.702-.861-1.162-1.582-1.102-.726.065-1.3.642-1.361 1.368-.579 6.871-7.646 8.067-7.942 8.114-.763.115-1.313.79-1.273 1.56s.657 1.384 1.428 1.421c6.035.284 7.724 8.644 7.739 8.726.136.713.759 1.22 1.473 1.22.041 0 .083-.001.125-.005.765-.063 1.358-.694 1.376-1.461.13-5.71 8.331-8.634 8.412-8.662.676-.234 1.093-.913.996-1.622-.099-.708-.684-1.25-1.398-1.292zm-9.585 6.794c-.924-1.885-2.34-3.947-4.447-5.28 1.856-1.041 3.697-2.63 4.871-4.917 1.057 1.874 2.654 3.955 4.941 5.224-1.849 1.102-3.989 2.741-5.365 4.973z" fill="#3a312a"/></g></g><g><g><path d="m167.153 30.469h-136.684c-7.681 0-13.908 6.227-13.908 13.908v181.434c0 7.681 6.227 13.908 13.908 13.908h136.683c7.681 0 13.908-6.227 13.908-13.908v-181.434c.001-7.681-6.226-13.908-13.907-13.908z" fill="#87796f"/></g></g><g><g><path d="m167.153 28.969h-136.683c-8.496 0-15.408 6.912-15.408 15.408v50.569c0 .829.671 1.5 1.5 1.5s1.5-.671 1.5-1.5v-50.569c0-6.842 5.566-12.408 12.408-12.408h136.684c6.842 0 12.408 5.566 12.408 12.408v181.433c0 6.842-5.566 12.408-12.408 12.408h-136.684c-6.842 0-12.408-5.567-12.408-12.408v-116.823c0-.829-.671-1.5-1.5-1.5s-1.5.671-1.5 1.5v116.823c0 8.496 6.912 15.408 15.408 15.408h136.684c8.496 0 15.408-6.912 15.408-15.408v-181.433c-.001-8.496-6.913-15.408-15.409-15.408z" fill="#3a312a"/></g></g><g><g><path d="m160.292 44.219h-122.961c-3.903 0-7.068 3.164-7.068 7.068v169.07c0 3.904 3.165 7.068 7.068 7.068h122.961c3.903 0 7.068-3.164 7.068-7.068v-169.07c0-3.904-3.165-7.068-7.068-7.068z" fill="#fae6ca"/></g></g><g><g><path d="m160.292 42.719h-122.961c-4.724 0-8.568 3.844-8.568 8.568v169.07c0 4.724 3.844 8.568 8.568 8.568h59.694c.829 0 1.5-.671 1.5-1.5s-.671-1.5-1.5-1.5h-59.694c-3.07 0-5.568-2.498-5.568-5.568v-169.07c0-3.07 2.498-5.568 5.568-5.568h122.961c3.07 0 5.567 2.497 5.567 5.568v169.07c0 3.07-2.497 5.568-5.567 5.568h-50.564c-.829 0-1.5.671-1.5 1.5s.671 1.5 1.5 1.5h50.564c4.724 0 8.567-3.844 8.567-8.568v-169.07c0-4.724-3.843-8.568-8.567-8.568z" fill="#3a312a"/></g></g><g><g><path d="m132.601 26.229h-10.179c-1.226 0-2.402-.545-3.145-1.52-3.814-5.004-11.544-8.428-20.465-8.428s-16.652 3.424-20.466 8.428c-.743.975-1.919 1.52-3.145 1.52h-10.18c-2.325 0-4.21 1.885-4.21 4.21v13.813c0 2.325 1.885 4.21 4.21 4.21h67.58c2.325 0 4.21-1.885 4.21-4.21v-13.812c0-2.326-1.885-4.211-4.21-4.211z" fill="#ef6d7a"/></g></g><g><g><path d="m132.601 24.729h-10.179c-.779 0-1.509-.348-1.953-.929-4.239-5.563-12.538-9.019-21.658-9.019s-17.419 3.456-21.659 9.019c-.444.582-1.173.929-1.952.929h-10.179c-3.148 0-5.71 2.561-5.71 5.71v13.813c0 3.149 2.562 5.711 5.71 5.711h67.579c3.149 0 5.711-2.562 5.711-5.711v-13.812c0-3.149-2.561-5.711-5.71-5.711zm2.71 19.524c0 1.495-1.216 2.711-2.711 2.711h-67.579c-1.494 0-2.71-1.216-2.71-2.711v-13.813c0-1.494 1.216-2.71 2.71-2.71h10.179c1.709 0 3.331-.789 4.338-2.111 3.685-4.835 11.069-7.837 19.273-7.837 8.203 0 15.587 3.003 19.272 7.838 1.008 1.321 2.63 2.11 4.338 2.11h10.179c1.495 0 2.711 1.216 2.711 2.71z" fill="#3a312a"/></g></g><g><g><path d="m146.553 85.981h-52.412c-.829 0-1.5.671-1.5 1.5s.671 1.5 1.5 1.5h52.412c.828 0 1.5-.671 1.5-1.5s-.672-1.5-1.5-1.5z" fill="#3a312a"/></g></g><g><g><path d="m81.231 70.909h-25.947c-1.988 0-3.599 1.611-3.599 3.599v25.947c0 1.988 1.611 3.599 3.599 3.599h25.947c1.988 0 3.599-1.611 3.599-3.599v-25.947c0-1.988-1.611-3.599-3.599-3.599z" fill="#d4da55"/></g></g><g><g><path d="m81.231 69.409h-25.947c-2.812 0-5.099 2.287-5.099 5.099v25.947c0 2.812 2.288 5.099 5.099 5.099h25.947c2.811 0 5.099-2.288 5.099-5.099v-25.948c0-2.811-2.288-5.098-5.099-5.098zm2.099 31.046c0 1.157-.942 2.099-2.099 2.099h-25.947c-1.157 0-2.099-.942-2.099-2.099v-25.948c0-1.157.942-2.099 2.099-2.099h25.947c1.157 0 2.099.941 2.099 2.099z" fill="#3a312a"/></g></g><g><g><path d="m80.724 78.843c-.586-.586-1.535-.586-2.121 0l-13.197 13.197-7.494-7.494c-.586-.586-1.535-.586-2.121 0-.586.585-.586 1.536 0 2.121l8.555 8.555c.293.293.677.439 1.061.439s.768-.146 1.061-.439l14.258-14.258c.584-.585.584-1.535-.002-2.121z" fill="#3a312a"/></g></g><g><g><path d="m146.553 135.481h-52.412c-.829 0-1.5.671-1.5 1.5s.671 1.5 1.5 1.5h52.412c.828 0 1.5-.671 1.5-1.5s-.672-1.5-1.5-1.5z" fill="#3a312a"/></g></g><g><g><path d="m81.231 120.409h-25.947c-1.988 0-3.599 1.611-3.599 3.599v25.947c0 1.988 1.611 3.599 3.599 3.599h25.947c1.988 0 3.599-1.611 3.599-3.599v-25.947c0-1.988-1.611-3.599-3.599-3.599z" fill="#d4da55"/></g></g><g><g><path d="m81.231 118.909h-25.947c-2.812 0-5.099 2.287-5.099 5.099v25.947c0 2.812 2.288 5.099 5.099 5.099h25.947c2.811 0 5.099-2.288 5.099-5.099v-25.947c0-2.812-2.288-5.099-5.099-5.099zm2.099 31.046c0 1.157-.942 2.099-2.099 2.099h-25.947c-1.157 0-2.099-.942-2.099-2.099v-25.947c0-1.157.942-2.099 2.099-2.099h25.947c1.157 0 2.099.941 2.099 2.099z" fill="#3a312a"/></g></g><g><g><path d="m80.724 128.343c-.586-.586-1.535-.586-2.121 0l-13.197 13.197-7.494-7.494c-.586-.586-1.535-.586-2.121 0-.586.585-.586 1.536 0 2.121l8.555 8.555c.293.293.677.439 1.061.439s.768-.146 1.061-.439l14.258-14.258c.584-.585.584-1.535-.002-2.121z" fill="#3a312a"/></g></g><g><g><path d="m146.553 184.981h-52.412c-.829 0-1.5.671-1.5 1.5s.671 1.5 1.5 1.5h52.412c.828 0 1.5-.671 1.5-1.5s-.672-1.5-1.5-1.5z" fill="#3a312a"/></g></g><g><g><path d="m81.231 169.909h-25.947c-1.988 0-3.599 1.611-3.599 3.599v25.947c0 1.988 1.611 3.599 3.599 3.599h25.947c1.988 0 3.599-1.611 3.599-3.599v-25.947c0-1.988-1.611-3.599-3.599-3.599z" fill="#d4da55"/></g></g><g><g><path d="m81.231 168.409h-25.947c-2.812 0-5.099 2.287-5.099 5.099v25.947c0 2.812 2.288 5.099 5.099 5.099h25.947c2.811 0 5.099-2.288 5.099-5.099v-25.947c0-2.812-2.288-5.099-5.099-5.099zm2.099 31.046c0 1.157-.942 2.099-2.099 2.099h-25.947c-1.157 0-2.099-.942-2.099-2.099v-25.947c0-1.157.942-2.099 2.099-2.099h25.947c1.157 0 2.099.941 2.099 2.099z" fill="#3a312a"/></g></g><g><g><path d="m80.724 177.843c-.586-.586-1.535-.586-2.121 0l-13.197 13.197-7.494-7.494c-.586-.586-1.535-.586-2.121 0-.586.585-.586 1.536 0 2.121l8.555 8.555c.293.293.677.439 1.061.439s.768-.146 1.061-.439l14.258-14.258c.584-.585.584-1.535-.002-2.121z" fill="#3a312a"/></g></g><g><g><path d="m231.819 17.735c-6.558-3.34-14.582-.731-17.922 5.828l-16.235 31.883-6.418 12.604-33.665 66.111 23.75 12.094 56.318-110.598c3.34-6.559.731-14.583-5.828-17.922z" fill="#8ac6dd"/></g></g><g><g><path d="m232.5 16.398c-7.286-3.707-16.229-.8-19.94 6.484l-16.235 31.883c-.376.738-.082 1.642.656 2.018.736.374 1.643.082 2.018-.656l16.235-31.883c2.959-5.81 10.093-8.133 15.904-5.172 5.81 2.958 8.131 10.093 5.172 15.904l-55.638 109.262-21.076-10.732 32.984-64.774c.376-.738.082-1.642-.656-2.018-.735-.375-1.642-.083-2.018.656l-33.665 66.111c-.181.354-.213.766-.09 1.145.123.378.392.692.746.873l23.75 12.093c.218.111.45.164.68.164.546 0 1.073-.3 1.338-.82l56.318-110.598c3.71-7.286.801-16.231-6.483-19.94z" fill="#3a312a"/></g></g><g><g><path d="m213.942 26.753h13.001v26.651h-13.001z" fill="#d4da55" transform="matrix(.454 -.891 .891 .454 84.698 218.333)"/></g></g><g><g><path d="m235.948 38.996-23.75-12.094c-.354-.18-.768-.213-1.144-.089-.378.123-.692.391-.873.746l-5.899 11.585c-.376.738-.082 1.642.656 2.018l23.75 12.094c.213.108.446.163.681.163.156 0 .313-.024.464-.074.378-.123.692-.391.873-.746l5.899-11.585c.375-.739.081-1.642-.657-2.018zm-7.236 10.905-21.076-10.733 4.538-8.912 21.076 10.732z" fill="#3a312a"/></g></g><g><g><path d="m157.581 134.163.475 28.378 23.275-16.284z" fill="#87796f"/></g></g><g><g><path d="m182.012 144.92-23.75-12.094c-.47-.238-1.028-.215-1.476.064-.446.279-.714.772-.705 1.297l.476 28.378c.01.555.324 1.059.818 1.311.215.11.448.164.682.164.302 0 .604-.091.86-.271l23.274-16.285c.431-.302.673-.808.636-1.333-.036-.524-.346-.992-.815-1.231zm-22.503 14.774-.386-23.063 19.301 9.829z" fill="#3a312a"/></g></g><g><g><path d="m236.208 199.592h-1.333c-.781-3.415-2.143-6.608-3.977-9.471l.981-.98c1.13-1.13 1.13-2.962 0-4.092l-5.209-5.209c-1.13-1.13-2.962-1.13-4.092 0l-1.017 1.017c-2.857-1.799-6.037-3.131-9.434-3.889v-1.457c0-1.598-1.295-2.893-2.893-2.893h-7.367c-1.598 0-2.893 1.296-2.893 2.893v1.457c-1.8.485-6.577 2.089-9.434 3.889l-1.017-1.017c-1.13-1.13-2.962-1.13-4.092 0l-5.209 5.209c-1.13 1.13-1.13 2.962 0 4.092l.981.98c-1.834 2.862-3.196 6.056-3.977 9.471h-1.333c-1.598 0-2.893 1.295-2.893 2.893v7.367c0 1.598 1.295 2.893 2.893 2.893h1.264c.751 3.457 2.096 6.692 3.924 9.593l-.858.858c-1.13 1.13-1.13 2.962 0 4.092l5.209 5.209c1.13 1.13 2.962 1.13 4.092 0l.821-.821c2.907 1.862 6.155 3.237 9.63 4.012v1.139c0 1.598 1.295 2.893 2.893 2.893h7.367c1.598 0 2.893-1.295 2.893-2.893v-1.139c3.475-.775 6.723-2.149 9.63-4.012l.821.821c1.13 1.13 2.962 1.13 4.092 0l5.209-5.209c1.13-1.13 1.13-2.962 0-4.092l-.858-.858c1.827-2.901 3.172-6.136 3.924-9.593h1.263c1.598 0 2.893-1.295 2.893-2.893v-7.367c-.001-1.598-1.296-2.893-2.894-2.893zm-30.658 21.617c-8.307 0-15.041-6.734-15.041-15.041s6.734-15.041 15.041-15.041 15.041 6.734 15.041 15.041c.001 8.307-6.734 15.041-15.041 15.041z" fill="#f16c7a"/></g></g><g><g><path d="m236.208 198.092h-.161c-.732-2.719-1.821-5.316-3.251-7.747l.144-.143c.83-.83 1.287-1.933 1.287-3.107 0-1.173-.457-2.277-1.287-3.106l-5.209-5.209c-1.713-1.713-4.5-1.713-6.213 0l-.188.187c-2.422-1.4-5.004-2.465-7.703-3.177v-.278c0-2.423-1.971-4.393-4.394-4.393h-7.366c-2.423 0-4.394 1.971-4.394 4.393v.336c-1.89.589-5.138 1.738-7.69 3.132l-.2-.2c-1.714-1.714-4.5-1.712-6.212 0l-5.208 5.208c-.831.83-1.288 1.933-1.289 3.106 0 1.174.458 2.277 1.288 3.107l.144.143c-1.431 2.432-2.521 5.029-3.252 7.747h-.16c-2.423 0-4.394 1.971-4.394 4.393v7.367c0 2.423 1.971 4.393 4.394 4.393h.078c.712 2.758 1.79 5.394 3.218 7.863l-.027.027c-.83.83-1.288 1.933-1.288 3.107s.458 2.277 1.288 3.106l5.209 5.209c1.706 1.707 4.48 1.713 6.196.016 2.479 1.457 5.129 2.561 7.906 3.292.021 2.404 1.984 4.354 4.394 4.354h7.366c2.409 0 4.372-1.949 4.394-4.354 2.778-.732 5.429-1.835 7.906-3.292 1.714 1.697 4.489 1.692 6.197-.016l5.209-5.209c1.713-1.713 1.713-4.5 0-6.213l-.027-.027c1.428-2.47 2.507-5.105 3.218-7.862h.078c2.422 0 4.393-1.971 4.393-4.393v-7.367c-.001-2.422-1.972-4.393-4.394-4.393zm1.393 11.76c0 .768-.625 1.393-1.393 1.393h-1.264c-.706 0-1.316.492-1.466 1.182-.703 3.235-1.957 6.301-3.727 9.112-.373.593-.286 1.365.209 1.86l.858.857c.543.544.543 1.427 0 1.971l-5.209 5.209c-.543.543-1.428.543-1.971 0l-.821-.821c-.496-.497-1.273-.583-1.87-.203-2.812 1.802-5.889 3.084-9.146 3.811-.687.153-1.174.761-1.174 1.464v1.139c0 .768-.625 1.393-1.394 1.393h-7.366c-.769 0-1.394-.625-1.394-1.393v-1.139c0-.703-.487-1.311-1.174-1.464-3.256-.727-6.334-2.008-9.147-3.811-.249-.159-.53-.237-.809-.237-.388 0-.772.15-1.061.439l-.821.821c-.544.543-1.428.542-1.97 0l-5.209-5.209c-.264-.263-.409-.613-.409-.985s.145-.722.409-.985l.857-.858c.495-.496.582-1.268.209-1.86-1.77-2.809-3.023-5.874-3.728-9.112-.15-.69-.761-1.181-1.466-1.181h-1.263c-.769 0-1.394-.625-1.394-1.393v-7.367c0-.768.625-1.393 1.394-1.393h1.332c.699 0 1.307-.483 1.462-1.166.732-3.198 2.003-6.225 3.778-8.996.381-.593.296-1.372-.202-1.87l-.98-.981c-.264-.263-.409-.613-.409-.985.001-.372.145-.721.409-.985l5.209-5.209c.542-.542 1.426-.544 1.97 0l1.018 1.018c.495.495 1.268.582 1.86.208 2.653-1.672 7.309-3.248 9.024-3.71.654-.176 1.109-.77 1.109-1.448v-1.457c0-.768.625-1.393 1.394-1.393h7.366c.769 0 1.394.625 1.394 1.393v1.457c0 .703.487 1.311 1.174 1.464 3.18.71 6.195 1.953 8.96 3.694.595.374 1.366.287 1.86-.208l1.018-1.018c.543-.543 1.428-.543 1.971 0l5.209 5.21c.263.263.408.612.408.984s-.146.722-.408.985l-.98.98c-.498.498-.583 1.276-.202 1.87 1.774 2.77 3.045 5.796 3.777 8.996.155.682.763 1.166 1.462 1.166h1.333c.768 0 1.393.625 1.393 1.393v7.368zm-32.05-20.225c-9.121 0-16.541 7.421-16.541 16.541 0 9.121 7.42 16.541 16.541 16.541s16.541-7.42 16.541-16.541c0-9.12-7.42-16.541-16.541-16.541zm0 30.082c-7.467 0-13.541-6.075-13.541-13.541s6.074-13.541 13.541-13.541 13.541 6.075 13.541 13.541c0 7.467-6.074 13.541-13.541 13.541z" fill="#3a312a"/></g></g><g><g><path d="m156.12 133.83c0-.01.01-.02.01-.04.02-.1.06-.21.11-.31l9.62-18.89v-63.3c0-3.07-2.5-5.57-5.57-5.57h-15c3.07 0 5.57 2.5 5.57 5.57v169.07c0 3.07-2.5 5.56-5.57 5.56h15c3.07 0 5.57-2.49 5.57-5.56v-61.45l-6.94 4.86c-.26.18-.56.27-.86.27-.24 0-.47-.05-.68-.16-.5-.25-.81-.76-.82-1.31l-.48-28.38c0-.02.01-.03.01-.04 0-.11.01-.22.03-.32z" fill="#decaad"/></g></g></g></svg>