<svg version="1.1" xmlns="http://www.w3.org/2000/svg" viewBox="0 0 1262 984" width="1262" height="984">
  <!-- svg-source:excalidraw -->
  
  <defs>
    <style>
      @font-face {
        font-family: "Virgil";
        src: url("https://excalidraw.com/Virgil.woff2");
      }
      @font-face {
        font-family: "Cascadia";
        src: url("https://excalidraw.com/Cascadia.woff2");
      }
    </style>
  </defs>
  <rect x="0" y="0" width="1262" height="984" fill="#ffffff"></rect><g transform="translate(465 219) rotate(0 88.5 22.5)"><text x="0" y="32" font-family="Virgil, Segoe UI Emoji" font-size="36px" fill="#000000" text-anchor="start" style="white-space: pre;" direction="ltr">Todo List</text></g><g stroke-linecap="round" transform="translate(10 286) rotate(0 621 344)"><path d="M-0.76 0.73 C472.57 -0.13, 945.41 1.07, 1242.68 0.52 M0.12 -0.01 C438.43 -2.83, 876.25 -2.84, 1241.61 0.36 M1242.76 0.32 C1240.61 185.04, 1240.12 368.3, 1241.35 688.6 M1242.02 -0.06 C1240.6 229.14, 1240.9 458.71, 1241.75 688.28 M1241.75 688.15 C749.93 683.11, 259.18 683.93, 0.02 688.66 M1241.88 688.16 C775.36 690.81, 308.26 690.58, 0.31 687.65 M-0.53 688 C0.53 469.08, 0.63 251.31, -0.26 0.42 M0.25 687.76 C1.57 480.91, 1.26 274.09, -0.1 0.26" stroke="#000000" stroke-width="1" fill="none"></path></g><g stroke-linecap="round" transform="translate(431 387) rotate(0 139.5 24)"><path d="M-1.27 -1.13 C75.12 1.54, 151.47 2.37, 280.21 -1 M0.25 0 C74.01 -1.74, 148.23 -0.34, 279.71 -0.53 M278.65 0.82 C280.38 10.44, 276.76 21.08, 277.13 46.77 M280 -0.59 C279.77 11.47, 279.19 25.39, 278.85 47.4 M279.55 47.25 C173.49 48.97, 67.64 46.79, -0.71 46.67 M278.65 47.37 C205.06 47.92, 133.25 47.61, 0.26 48.49 M-0.38 47.24 C1.27 34.19, -1.65 19.66, 0.84 0.7 M-0.25 47.48 C-0.25 37.38, 0.37 26.38, -0.36 -0.11" stroke="#000000" stroke-width="1" fill="none"></path></g><g transform="translate(564 301) rotate(0 33.5 17.5)"><text x="0" y="25" font-family="Virgil, Segoe UI Emoji" font-size="28px" fill="#000000" text-anchor="start" style="white-space: pre;" direction="ltr">Tody</text></g><g transform="translate(519 306) rotate(0 11.5 16)" stroke="none" fill="#000000"><path d="M 3.28,0.15 Q 3.28,0.15 5.91,2.21 8.55,4.27 10.28,6.54 12.01,8.81 13.53,10.89 15.04,12.96 16.48,14.67 17.92,16.37 19.02,16.89 20.12,17.41 21.14,18.07 22.17,18.73 23.89,18.62 25.62,18.52 26.34,18.18 27.05,17.84 27.36,17.88 27.67,17.93 27.95,18.04 28.24,18.16 28.49,18.34 28.74,18.52 28.94,18.76 29.14,18.99 29.28,19.27 29.42,19.55 29.49,19.85 29.55,20.15 29.55,20.46 29.54,20.77 29.46,21.07 29.38,21.37 29.23,21.64 29.08,21.91 28.87,22.14 28.66,22.37 28.40,22.54 28.14,22.71 27.85,22.81 27.56,22.91 27.25,22.94 26.94,22.98 27.51,22.78 28.07,22.58 28.53,21.74 28.99,20.90 28.96,21.21 28.92,21.52 28.80,21.81 28.69,22.10 28.52,22.35 28.34,22.61 28.10,22.81 27.87,23.01 27.60,23.16 27.32,23.30 27.02,23.37 26.72,23.45 26.41,23.44 26.10,23.44 25.80,23.37 25.50,23.29 25.22,23.15 24.95,23.00 24.72,22.79 24.48,22.59 24.31,22.33 24.14,22.07 24.03,21.78 23.92,21.49 23.88,21.18 23.85,20.88 23.62,19.52 23.39,18.16 23.28,16.99 23.18,15.82 20.07,16.42 16.97,17.01 14.36,17.02 11.75,17.03 9.51,16.41 7.27,15.79 5.57,15.26 3.86,14.73 2.13,13.86 0.40,13.00 -0.70,12.36 -1.81,11.71 -2.55,10.91 -3.30,10.11 -3.67,8.65 -4.04,7.20 -3.50,6.01 -2.97,4.83 -1.75,4.24 -0.54,3.65 0.81,3.54 2.16,3.43 4.48,3.39 6.81,3.34 8.32,3.65 9.83,3.96 11.74,4.50 13.65,5.04 16.19,6.62 18.73,8.21 20.15,9.48 21.57,10.75 22.45,11.50 23.34,12.25 23.95,13.61 24.55,14.98 24.43,16.29 24.31,17.59 24.13,17.84 23.96,18.09 23.73,18.29 23.50,18.49 23.23,18.63 22.96,18.77 22.66,18.84 22.37,18.91 22.06,18.91 21.76,18.91 21.47,18.83 21.17,18.76 20.90,18.62 20.63,18.47 20.41,18.27 20.18,18.07 20.01,17.81 19.84,17.56 19.73,17.28 19.63,16.99 19.59,16.69 19.56,16.39 19.60,16.09 19.64,15.78 19.75,15.50 19.86,15.22 20.00,13.59 20.14,11.97 21.06,10.68 21.99,9.39 23.04,7.80 24.10,6.21 24.56,5.93 25.01,5.65 25.26,5.41 25.50,5.17 25.79,5.00 26.09,4.82 26.42,4.72 26.74,4.62 27.08,4.60 27.43,4.59 27.76,4.65 28.10,4.71 28.41,4.86 28.72,5.00 28.99,5.21 29.26,5.43 29.46,5.70 29.67,5.97 29.81,6.28 29.95,6.59 30.01,6.93 30.07,7.27 30.04,7.61 30.02,7.95 29.92,8.28 29.81,8.60 29.63,8.89 29.46,9.18 27.43,9.13 25.40,9.07 22.95,9.37 20.49,9.67 18.05,9.50 15.61,9.32 12.56,9.19 9.51,9.05 5.27,8.67 1.03,8.28 -2.42,8.08 -5.88,7.89 -8.22,7.78 -10.56,7.68 -11.79,7.74 -13.03,7.80 -12.73,6.77 -12.44,5.74 -11.11,8.09 -9.78,10.44 -8.63,11.96 -7.48,13.48 -6.36,14.68 -5.24,15.89 -4.35,17.41 -3.46,18.93 -2.50,19.49 -1.53,20.05 -0.65,20.69 0.21,21.32 1.20,21.71 2.19,22.10 3.69,22.61 5.20,23.11 8.23,23.40 11.26,23.70 14.99,24.17 18.71,24.64 22.71,25.76 26.70,26.87 29.75,27.63 32.80,28.40 34.39,28.64 35.99,28.89 37.02,29.36 38.05,29.83 38.34,30.20 38.64,30.57 38.83,30.72 39.02,30.88 39.17,31.07 39.32,31.27 39.42,31.49 39.52,31.72 39.56,31.96 39.61,32.20 39.59,32.45 39.57,32.69 39.50,32.93 39.42,33.16 39.29,33.37 39.16,33.58 38.99,33.75 38.81,33.92 38.60,34.05 38.39,34.18 38.16,34.25 37.92,34.32 37.67,34.33 37.43,34.34 37.19,34.30 36.94,34.25 36.72,34.15 36.50,34.05 34.96,34.65 33.42,35.26 32.14,35.31 30.87,35.36 26.30,35.23 21.73,35.10 18.64,34.99 15.56,34.89 13.66,34.87 11.77,34.85 10.38,34.59 9.00,34.33 8.09,33.74 7.19,33.15 6.68,32.09 6.18,31.03 6.33,29.90 6.49,28.78 6.98,27.78 7.47,26.79 9.04,25.95 10.60,25.12 10.52,25.24 10.44,25.35 10.74,25.25 11.05,25.16 11.37,25.14 11.69,25.12 12.01,25.18 12.32,25.23 12.62,25.36 12.91,25.50 13.16,25.69 13.42,25.89 13.61,26.14 13.81,26.40 13.94,26.69 14.08,26.98 14.14,27.30 14.19,27.61 14.17,27.93 14.16,28.25 14.06,28.56 13.97,28.87 13.80,29.14 13.63,29.42 13.41,29.65 13.18,29.87 12.91,30.04 12.63,30.21 11.66,31.22 10.68,32.24 10.41,32.42 10.14,32.61 9.83,32.72 9.52,32.84 9.19,32.88 8.86,32.91 8.53,32.87 8.20,32.83 7.89,32.71 7.59,32.59 7.31,32.40 7.04,32.21 6.83,31.96 6.61,31.71 6.46,31.42 6.31,31.12 6.23,30.80 6.15,30.48 6.15,30.15 6.16,29.82 6.24,29.50 6.32,29.18 6.48,28.89 6.63,28.59 6.85,28.35 7.07,28.10 9.35,28.06 11.63,28.01 12.74,27.63 13.85,27.25 16.92,26.61 20.00,25.98 22.26,25.75 24.53,25.52 26.72,25.45 28.90,25.38 29.45,25.52 29.99,25.66 30.23,25.67 30.47,25.68 30.70,25.75 30.94,25.82 31.14,25.95 31.35,26.07 31.52,26.24 31.70,26.41 31.82,26.62 31.95,26.82 32.02,27.05 32.10,27.28 32.11,27.52 32.13,27.76 32.09,28.00 32.05,28.24 31.95,28.46 31.85,28.68 31.70,28.87 31.55,29.07 31.37,29.22 31.18,29.37 30.96,29.47 30.74,29.57 30.50,29.61 30.26,29.66 28.39,29.45 26.52,29.24 25.66,28.30 24.81,27.36 23.99,26.19 23.18,25.03 22.47,23.50 21.75,21.98 20.68,16.83 19.62,11.69 18.69,8.52 17.76,5.35 17.29,3.67 16.82,1.98 15.94,1.50 15.06,1.02 14.80,0.78 14.54,0.53 14.37,0.21 14.20,-0.09 14.14,-0.45 14.08,-0.80 14.14,-1.16 14.20,-1.51 14.37,-1.83 14.53,-2.15 14.79,-2.40 15.05,-2.64 15.38,-2.79 15.71,-2.95 16.06,-2.98 16.42,-3.02 16.77,-2.95 17.12,-2.87 17.43,-2.69 17.74,-2.50 17.97,-2.23 18.20,-1.95 18.34,-1.62 18.47,-1.29 18.49,-0.93 18.51,-0.57 18.42,-0.22 18.32,0.11 18.12,0.41 17.92,0.71 17.63,0.93 17.35,1.14 17.01,1.26 16.67,1.37 16.31,1.37 15.95,1.38 15.61,1.26 15.27,1.15 14.98,0.93 14.69,0.71 14.49,0.42 14.29,0.12 14.19,-0.22 14.10,-0.56 14.11,-0.92 14.13,-1.28 14.27,-1.62 14.40,-1.95 14.63,-2.22 14.86,-2.50 15.17,-2.68 15.48,-2.87 15.83,-2.95 16.18,-3.02 16.54,-2.99 16.89,-2.95 17.22,-2.80 17.55,-2.65 18.46,-1.91 19.37,-1.18 19.93,-0.13 20.49,0.92 20.92,2.55 21.35,4.18 22.53,7.46 23.70,10.75 24.89,15.38 26.07,20.02 26.60,21.20 27.12,22.38 28.55,24.02 29.99,25.66 30.23,25.67 30.47,25.68 30.70,25.75 30.94,25.82 31.14,25.95 31.35,26.07 31.52,26.24 31.70,26.41 31.82,26.62 31.95,26.82 32.02,27.05 32.10,27.28 32.11,27.52 32.13,27.76 32.09,28.00 32.05,28.24 31.95,28.46 31.85,28.68 31.70,28.87 31.55,29.06 31.37,29.22 31.18,29.37 30.96,29.47 30.74,29.57 30.50,29.61 30.26,29.66 29.63,29.34 29.00,29.03 27.07,29.24 25.14,29.45 23.13,29.88 21.11,30.30 18.18,31.22 15.25,32.15 12.97,32.19 10.68,32.24 10.41,32.42 10.14,32.61 9.83,32.72 9.52,32.84 9.19,32.88 8.86,32.91 8.53,32.87 8.20,32.83 7.89,32.71 7.59,32.59 7.32,32.40 7.04,32.21 6.83,31.96 6.61,31.71 6.46,31.42 6.31,31.12 6.23,30.80 6.15,30.48 6.15,30.15 6.16,29.82 6.24,29.50 6.32,29.18 6.48,28.89 6.63,28.59 6.85,28.35 7.07,28.10 7.70,27.57 8.32,27.04 9.38,26.20 10.44,25.35 10.74,25.25 11.05,25.16 11.37,25.14 11.69,25.12 12.01,25.18 12.32,25.23 12.62,25.36 12.91,25.50 13.16,25.69 13.42,25.89 13.61,26.14 13.81,26.40 13.94,26.69 14.08,26.98 14.14,27.30 14.19,27.61 14.17,27.93 14.16,28.25 14.06,28.56 13.97,28.87 13.80,29.14 13.63,29.42 13.41,29.65 13.18,29.87 12.91,30.04 12.63,30.21 12.21,30.67 11.80,31.14 13.68,31.11 15.55,31.09 18.64,30.98 21.72,30.87 26.27,30.73 30.81,30.58 32.02,30.60 33.24,30.63 34.56,30.73 35.88,30.83 37.26,30.70 38.64,30.57 38.83,30.72 39.02,30.88 39.17,31.07 39.32,31.27 39.42,31.49 39.52,31.72 39.56,31.96 39.61,32.20 39.59,32.45 39.57,32.69 39.50,32.93 39.42,33.16 39.29,33.37 39.16,33.58 38.99,33.75 38.81,33.92 38.60,34.05 38.39,34.18 38.16,34.25 37.92,34.32 37.67,34.33 37.43,34.34 37.19,34.30 36.95,34.25 36.72,34.15 36.50,34.05 35.89,33.12 35.28,32.19 33.68,31.82 32.08,31.45 28.96,30.77 25.84,30.09 22.09,29.15 18.34,28.21 14.67,27.92 10.99,27.63 7.44,27.47 3.89,27.32 2.07,26.76 0.25,26.21 -1.85,24.77 -3.97,23.34 -5.38,22.13 -6.79,20.93 -7.43,19.66 -8.07,18.39 -9.20,17.09 -10.33,15.78 -11.76,14.11 -13.19,12.43 -14.56,9.93 -15.94,7.42 -14.55,5.84 -13.16,4.25 -11.82,4.36 -10.49,4.47 -8.13,4.47 -5.76,4.46 -2.23,4.52 1.29,4.57 5.40,4.75 9.51,4.94 12.56,4.81 15.61,4.68 18.07,4.51 20.52,4.34 22.23,4.27 23.94,4.20 25.43,4.23 26.92,4.26 27.85,4.77 28.79,5.28 26.90,5.47 25.01,5.65 25.26,5.41 25.50,5.17 25.79,5.00 26.09,4.82 26.41,4.72 26.74,4.62 27.08,4.60 27.43,4.59 27.76,4.65 28.10,4.71 28.41,4.86 28.72,5.00 28.99,5.21 29.25,5.43 29.46,5.70 29.67,5.97 29.81,6.28 29.95,6.59 30.01,6.93 30.07,7.27 30.04,7.61 30.02,7.95 29.92,8.27 29.81,8.60 29.63,8.89 29.46,9.18 28.43,9.99 27.41,10.79 26.68,11.85 25.96,12.90 25.26,13.93 24.57,14.95 24.44,16.27 24.31,17.59 24.13,17.84 23.96,18.09 23.73,18.29 23.50,18.49 23.23,18.63 22.96,18.77 22.67,18.84 22.37,18.91 22.07,18.91 21.76,18.91 21.47,18.83 21.17,18.76 20.90,18.62 20.63,18.47 20.41,18.27 20.18,18.07 20.01,17.81 19.84,17.56 19.73,17.28 19.63,16.99 19.59,16.69 19.56,16.39 19.60,16.09 19.64,15.78 19.75,15.50 19.86,15.22 20.04,15.34 20.23,15.46 19.48,14.67 18.72,13.88 17.64,12.88 16.56,11.87 14.57,10.81 12.58,9.74 9.70,9.21 6.81,8.68 4.63,8.71 2.45,8.74 1.47,8.13 0.50,7.51 1.37,8.42 2.24,9.32 3.66,10.03 5.07,10.74 6.71,11.22 8.36,11.69 9.94,12.08 11.51,12.46 13.82,12.14 16.13,11.82 18.35,11.25 20.57,10.68 22.02,10.40 23.46,10.12 24.67,10.30 25.87,10.49 26.79,11.22 27.71,11.94 28.30,13.34 28.90,14.73 28.82,16.23 28.75,17.73 28.87,19.31 28.99,20.90 28.96,21.21 28.92,21.52 28.80,21.81 28.69,22.10 28.52,22.35 28.34,22.61 28.11,22.81 27.87,23.01 27.60,23.16 27.32,23.30 27.02,23.37 26.72,23.45 26.41,23.44 26.10,23.44 25.80,23.37 25.50,23.29 25.22,23.15 24.95,23.00 24.72,22.79 24.49,22.59 24.31,22.33 24.14,22.07 24.03,21.78 23.92,21.49 23.88,21.18 23.85,20.88 24.88,19.89 25.92,18.91 26.49,18.37 27.05,17.84 27.36,17.88 27.67,17.93 27.95,18.04 28.24,18.16 28.49,18.34 28.74,18.52 28.94,18.76 29.14,18.99 29.28,19.27 29.42,19.55 29.49,19.85 29.55,20.15 29.55,20.46 29.54,20.77 29.46,21.07 29.38,21.37 29.23,21.64 29.08,21.91 28.87,22.14 28.66,22.37 28.40,22.54 28.14,22.71 27.85,22.81 27.56,22.91 27.25,22.94 26.94,22.98 25.32,23.13 23.69,23.28 22.00,22.89 20.32,22.51 19.29,21.46 18.25,20.42 16.91,19.47 15.56,18.53 13.95,16.79 12.33,15.06 10.73,13.10 9.12,11.14 7.56,9.32 6.01,7.50 4.14,6.21 2.28,4.93 1.22,4.11 0.16,3.29 -0.86,2.22 -1.88,1.14 -1.99,0.90 -2.10,0.66 -2.15,0.40 -2.20,0.13 -2.19,-0.12 -2.17,-0.39 -2.09,-0.64 -2.01,-0.90 -1.88,-1.12 -1.74,-1.35 -1.55,-1.54 -1.36,-1.73 -1.14,-1.87 -0.91,-2.01 -0.65,-2.09 -0.40,-2.17 -0.13,-2.18 0.12,-2.20 0.38,-2.15 0.65,-2.11 0.89,-2.00 1.13,-1.89 1.34,-1.73 1.55,-1.56 2.42,-0.70 L 3.28,0.15 Z"></path></g><g stroke-linecap="round" transform="translate(720 385) rotate(0 26 23.5)"><path d="M0.4 1.67 C14.68 -0.86, 31.61 -0.14, 53.84 -1.55 M0.83 -0.54 C14.32 -0.47, 29.56 0.35, 52.57 0.69 M51.77 -0.13 C51.15 14.4, 52.96 29.19, 53.39 46.71 M52.07 -0.42 C52.99 16.44, 52.94 35.17, 51.36 46.97 M50.61 47.32 C40.48 48.2, 28.86 45.28, 1.3 45.97 M51.39 47.7 C33.9 46.89, 13.6 46.53, 0.52 47.19 M0.05 47.62 C-0.6 31.52, -0.2 16.62, 0.07 -1.78 M0.79 47.5 C-1.24 32.75, -0.45 19.89, -0.99 0.21" stroke="#000000" stroke-width="1" fill="none"></path></g><g transform="translate(744 397) rotate(0 0 13.5)" stroke="none" fill="#000000"><path d="M 2.70,2.3 Q 2.70,2.3 2.77,3.69 2.84,5.08 2.90,6.56 2.95,8.04 2.99,9.42 3.04,10.79 3.08,11.98 3.12,13.17 3.18,14.71 3.23,16.25 2.87,18.60 2.51,20.95 2.45,22.16 2.38,23.36 2.40,24.81 2.41,26.26 2.41,26.50 2.41,26.74 2.31,27.28 2.21,27.83 1.94,28.31 1.68,28.79 1.27,29.17 0.86,29.54 0.36,29.76 -0.14,29.98 -0.69,30.03 -1.24,30.08 -1.78,29.96 -2.31,29.83 -2.78,29.53 -3.25,29.24 -3.60,28.81 -3.95,28.39 -4.14,27.87 -4.34,27.35 -4.36,26.80 -4.38,26.25 -4.22,25.72 -4.07,25.19 -3.75,24.74 -3.43,24.29 -2.98,23.96 -2.54,23.64 -2.01,23.47 -1.49,23.30 -0.93,23.31 -0.38,23.32 0.13,23.51 0.65,23.69 1.08,24.04 1.52,24.38 1.82,24.84 2.12,25.30 2.26,25.84 2.40,26.37 2.36,26.92 2.32,27.47 2.10,27.98 1.89,28.49 1.52,28.91 1.16,29.32 0.68,29.60 0.20,29.87 -0.33,29.98 -0.87,30.09 -1.42,30.02 -1.97,29.95 -2.46,29.71 -2.96,29.47 -3.35,29.08 -3.75,28.70 -4.00,28.20 -4.25,27.71 -4.33,27.16 -4.41,26.62 -4.38,25.40 -4.36,24.18 -4.30,23.02 -4.24,21.87 -3.95,20.29 -3.66,18.71 -3.45,17.48 -3.23,16.25 -3.18,14.71 -3.12,13.17 -3.08,11.98 -3.04,10.79 -2.99,9.42 -2.95,8.04 -2.90,6.56 -2.84,5.08 -2.77,3.69 -2.70,2.3 -2.66,0.82 -2.62,-0.64 -2.51,-0.95 -2.39,-1.25 -2.21,-1.52 -2.02,-1.79 -1.78,-2.01 -1.53,-2.22 -1.24,-2.37 -0.96,-2.53 -0.64,-2.60 -0.32,-2.68 0.00,-2.68 0.32,-2.68 0.64,-2.60 0.96,-2.53 1.24,-2.37 1.53,-2.22 1.78,-2.01 2.02,-1.79 2.21,-1.52 2.39,-1.25 2.51,-0.95 2.62,-0.64 2.66,-0.32 2.70,0.00 2.70,1.15 L 2.70,2.3 Z"></path></g><g transform="translate(730 405) rotate(0 17.5 2.5)" stroke="none" fill="#000000"><path d="M 2.98,-2.59 Q 2.98,-2.59 4.09,-2.23 5.21,-1.88 6.49,-1.88 7.78,-1.89 9.72,-1.55 11.66,-1.20 13.27,-1.14 14.87,-1.09 16.03,-1.12 17.19,-1.14 19.42,-0.29 21.65,0.56 23.57,1.09 25.50,1.63 26.71,1.65 27.92,1.67 29.06,1.66 30.20,1.66 31.63,1.65 33.07,1.65 33.86,1.64 34.65,1.63 35.19,1.72 35.72,1.81 36.20,2.06 36.68,2.32 37.06,2.71 37.43,3.11 37.66,3.60 37.89,4.10 37.95,4.64 38.01,5.18 37.89,5.71 37.77,6.24 37.49,6.71 37.21,7.18 36.79,7.53 36.38,7.88 35.87,8.08 35.37,8.28 34.82,8.31 34.28,8.34 33.75,8.20 33.23,8.05 32.78,7.74 32.33,7.44 32.00,7.00 31.67,6.57 31.50,6.05 31.32,5.54 31.32,4.99 31.32,4.45 31.50,3.93 31.67,3.42 32.00,2.98 32.33,2.55 32.78,2.24 33.23,1.94 33.76,1.79 34.28,1.65 34.83,1.68 35.37,1.71 35.88,1.91 36.38,2.11 36.80,2.46 37.21,2.82 37.49,3.28 37.77,3.75 37.89,4.28 38.01,4.82 37.95,5.36 37.89,5.90 37.66,6.39 37.43,6.89 37.06,7.28 36.68,7.68 36.20,7.93 35.72,8.19 35.18,8.27 34.64,8.36 33.85,8.35 33.06,8.34 31.60,8.33 30.15,8.32 28.93,8.28 27.71,8.24 26.04,8.10 24.38,7.95 23.33,7.47 22.29,7.00 21.11,6.81 19.93,6.62 18.54,5.87 17.15,5.13 15.93,5.08 14.70,5.02 13.08,4.88 11.46,4.73 10.16,4.29 8.86,3.84 7.11,3.70 5.36,3.56 4.06,3.07 2.76,2.59 1.02,2.54 -0.72,2.49 -1.01,2.37 -1.30,2.24 -1.55,2.06 -1.80,1.87 -1.99,1.62 -2.19,1.38 -2.33,1.10 -2.46,0.82 -2.52,0.51 -2.58,0.20 -2.57,-0.10 -2.56,-0.41 -2.47,-0.71 -2.38,-1.01 -2.23,-1.29 -2.07,-1.56 -1.85,-1.78 -1.64,-2.01 -1.37,-2.18 -1.11,-2.34 -0.81,-2.44 -0.51,-2.54 -0.20,-2.57 0.10,-2.59 1.54,-2.59 L 2.98,-2.59 Z"></path></g><g stroke-linecap="round" transform="translate(22 10) rotate(0 164 120)"><path d="M-0.28 1.36 C107.77 0.05, 213.93 1.35, 327.54 -1.25 M0.09 0.43 C129.79 -0.98, 258.69 -0.5, 327.95 0.32 M329.24 1 C329.25 55.13, 330.58 108.97, 328.74 241.42 M328.64 0.44 C326.63 91.03, 326.47 183, 327.42 240.5 M326.74 238.72 C232.72 241.3, 136.26 241.61, 0.51 240.46 M327.54 240.24 C219.22 239.82, 111.2 240.09, -0.41 239.79 M-0.22 240.71 C0.13 189.27, -1.47 139.37, -1.33 1.63 M-0.02 239.82 C1.96 154.67, 1.58 69.03, -0.78 0.52" stroke="#000000" stroke-width="1" fill="none"></path></g><g transform="translate(49 19.5) rotate(0 151.5 110)"><text x="0" y="14" font-family="Virgil, Segoe UI Emoji" font-size="16px" fill="#000000" text-anchor="start" style="white-space: pre;" direction="ltr">Features:</text><text x="0" y="34" font-family="Virgil, Segoe UI Emoji" font-size="16px" fill="#000000" text-anchor="start" style="white-space: pre;" direction="ltr">CRUD Functionality</text><text x="0" y="54" font-family="Virgil, Segoe UI Emoji" font-size="16px" fill="#000000" text-anchor="start" style="white-space: pre;" direction="ltr">Automatic Search Functionality</text><text x="0" y="74" font-family="Virgil, Segoe UI Emoji" font-size="16px" fill="#000000" text-anchor="start" style="white-space: pre;" direction="ltr">Animated Button</text><text x="0" y="94" font-family="Virgil, Segoe UI Emoji" font-size="16px" fill="#000000" text-anchor="start" style="white-space: pre;" direction="ltr">Animated Input and Button Entrance</text><text x="0" y="114" font-family="Virgil, Segoe UI Emoji" font-size="16px" fill="#000000" text-anchor="start" style="white-space: pre;" direction="ltr">Animated Tasks Get and Delete and </text><text x="0" y="134" font-family="Virgil, Segoe UI Emoji" font-size="16px" fill="#000000" text-anchor="start" style="white-space: pre;" direction="ltr">Filter</text><text x="0" y="154" font-family="Virgil, Segoe UI Emoji" font-size="16px" fill="#000000" text-anchor="start" style="white-space: pre;" direction="ltr">Todo Item Swipe to delete and turn</text><text x="0" y="174" font-family="Virgil, Segoe UI Emoji" font-size="16px" fill="#000000" text-anchor="start" style="white-space: pre;" direction="ltr">red swipe to edit and turn yellow</text><text x="0" y="194" font-family="Virgil, Segoe UI Emoji" font-size="16px" fill="#000000" text-anchor="start" style="white-space: pre;" direction="ltr">swipe down to mark green to complete</text><text x="0" y="214" font-family="Virgil, Segoe UI Emoji" font-size="16px" fill="#000000" text-anchor="start" style="white-space: pre;" direction="ltr">swipe up to make uncomplete</text></g><g stroke-linecap="round" transform="translate(430 455) rotate(0 177 252.5)"><path d="M1.1 -0.58 C77.87 1.59, 156.36 1.87, 352.72 1.1 M-0.3 0.08 C77.8 -0.84, 154.34 -0.79, 353.69 -0.1 M354.7 -0.4 C353.62 153.79, 353.43 307.35, 354.77 504.96 M354.03 0.19 C353.86 172.71, 353.59 344.92, 354.22 504.87 M353.58 506.04 C269.59 506.37, 184.56 504.6, -0.71 505.19 M354.07 505.58 C218.18 505.51, 83.72 505.67, -0.34 505.04 M0.49 504.25 C0.85 347.44, 0.97 189.29, -0.58 -0.24 M0.04 505.35 C2.02 309.75, 2.19 114.86, 0.29 0.19" stroke="#000000" stroke-width="1" fill="none"></path></g><g stroke-linecap="round" transform="translate(439 466) rotate(0 168.5 26.5)"><path d="M0.17 0.38 C98.89 0.67, 198.11 0.91, 336.57 -0.02 M-0.41 -0.05 C77.98 -1.34, 155.58 -1.95, 336.87 -0.22 M336.34 0.33 C338.39 11.61, 335.46 24.2, 337.06 51.56 M337.87 0.47 C336.2 19.47, 337.45 37.18, 336.68 52.36 M337.11 54.11 C259.63 54.46, 185.56 53.61, -0.45 54.26 M337.44 52.64 C239.3 51.82, 139.94 51.78, -0.58 53.46 M-1.74 52.92 C-0.15 33.29, -1.82 14.59, 1.59 0.64 M0.32 53.82 C0.59 34.54, 0.74 18.81, 0.67 0.48" stroke="#000000" stroke-width="1" fill="none"></path></g><g transform="translate(462 481) rotate(0 47.5 10)"><text x="0" y="14" font-family="Virgil, Segoe UI Emoji" font-size="16px" fill="#000000" text-anchor="start" style="white-space: pre;" direction="ltr">Do Stuff.....</text></g><g stroke-linecap="round" transform="translate(312 531) rotate(0 165 32)"><path d="M0.49 0.97 C99.51 -0.37, 200.19 -0.28, 330.83 0.06 M0.4 -0.55 C76.71 -0.18, 153.01 -0.23, 329.61 0.04 M328.5 0.52 C329.76 15.88, 331.29 34.49, 329.35 63.21 M329.73 -0.43 C330.23 20.12, 330.41 38.85, 329.52 64.18 M329.25 63.95 C221.01 66.81, 109.73 64.93, 0.94 65.23 M329.8 63.75 C235.35 63.81, 140.95 64.86, -0.55 63.72 M-0.96 65.01 C0.08 44.75, 0.84 23.96, 1.25 0.07 M-0.81 63.56 C-0.93 39.42, 0.72 14.59, -0.68 0.42" stroke="red" stroke-width="1" fill="none"></path></g><g transform="translate(340.5 553) rotate(0 37 10)"><text x="0" y="14" font-family="Virgil, Segoe UI Emoji" font-size="16px" fill="#000000" text-anchor="start" style="white-space: pre;" direction="ltr">Delete.....</text></g><g stroke-linecap="round" transform="translate(563 756) rotate(0 165 32)"><path d="M0.15 0.4 C87.1 -1.79, 173.9 -1.44, 330.19 0.15 M-0.02 0.07 C115.7 0.57, 231.59 -0.62, 330.53 -0.09 M330 0.1 C330.74 26.12, 331.12 48.42, 328.13 62.94 M329.52 0.93 C330.46 14.05, 330.17 26.28, 329.56 63.27 M330.65 63.84 C221.85 64.74, 112.54 65.38, -0.81 63.57 M330.52 63.32 C257.99 62.42, 185.3 63.25, 0.53 64.01 M-1.69 64.48 C1.4 50.27, -1.99 34.29, -1.06 1.3 M0.3 64.58 C0.68 41.79, 1.06 18.01, -0.29 -0.46" stroke="yellow" stroke-width="1" fill="none"></path></g><g transform="translate(593.5 781) rotate(0 27 10)"><text x="0" y="14" font-family="Virgil, Segoe UI Emoji" font-size="16px" fill="#000000" text-anchor="start" style="white-space: pre;" direction="ltr">Edit.....</text></g><g stroke-linecap="round" transform="translate(449 575) rotate(0 165 32)"><path d="M-0.68 -1.12 C82.38 2.78, 161.25 0.97, 329.47 0.58 M-0.35 0.33 C118.09 -0.77, 235 -0.6, 330.14 0.22 M328.52 -0.42 C327.71 17.9, 331.07 32.57, 330.41 62.17 M330.15 -0.84 C330.44 15.81, 330.62 30.53, 330.03 64.39 M329.54 65.3 C205.44 61.72, 79.44 63.87, -0.67 64.42 M329.33 64.32 C228.98 66.54, 127.25 66.83, 0.01 63.76 M-0.98 63.94 C-1.85 38.29, -2.02 15.49, -1 0.2 M0.17 64.34 C-0.1 45.73, 0.14 25.94, -0.34 0.67" stroke="gray" stroke-width="1" fill="none"></path></g><g transform="translate(482.5 600) rotate(0 37.5 10)"><text x="0" y="14" font-family="Virgil, Segoe UI Emoji" font-size="16px" fill="#000000" text-anchor="start" style="white-space: pre;" direction="ltr">Undone.....</text></g><g stroke-linecap="round" transform="translate(450 707) rotate(0 165 32)"><path d="M1.25 0.19 C123.37 -0.81, 245.25 -1.99, 329.61 0.09 M0.02 -0.3 C104.57 1.57, 207.36 2.48, 330.05 -0.52 M331.25 -0.07 C331.4 18.19, 330.03 39.11, 328.66 62.72 M330.84 0.08 C331.11 13.82, 330.67 26.97, 330.16 64.99 M328.85 64.16 C243.01 62.59, 157.34 63.1, -0.99 63.56 M330.36 63.7 C259.43 64.98, 189.71 64.21, -0.68 64.12 M1.89 62.82 C-1.05 42.72, -1.8 26, 0.82 -1.46 M-0.11 64.04 C-0.31 42.69, 1.41 21.65, -0.41 0.79" stroke="green" stroke-width="1" fill="none"></path></g><g transform="translate(483.5 733) rotate(0 30 10)"><text x="0" y="14" font-family="Virgil, Segoe UI Emoji" font-size="16px" fill="#000000" text-anchor="start" style="white-space: pre;" direction="ltr">Done.....</text></g></svg>